<svg width="747" height="536" viewBox="0 0 747 536" fill="none" xmlns="http://www.w3.org/2000/svg">
<g filter="url(#filter0_d_316_4935)">
<path d="M587.547 77.7378C591.165 116.494 620.434 146.677 657.014 153.08C650.525 156.002 646.299 162.808 646.998 170.29C647.877 179.706 656.222 186.626 665.637 185.747C665.837 185.729 666.035 185.704 666.232 185.679L666.234 185.702C666.036 185.714 665.838 185.729 665.638 185.747C656.223 186.626 649.302 194.972 650.181 204.388C651.06 213.803 659.406 220.723 668.822 219.844C669.021 219.826 669.219 219.802 669.416 219.777L669.418 219.8C669.219 219.812 669.02 219.826 668.821 219.844C659.405 220.723 652.485 229.069 653.364 238.485C654.243 247.9 662.588 254.821 672.004 253.942C672.203 253.923 672.402 253.899 672.599 253.874L672.601 253.898C672.403 253.91 672.203 253.923 672.004 253.942C662.588 254.821 655.669 263.167 656.548 272.583C657.427 281.998 665.772 288.918 675.187 288.039C675.386 288.02 675.585 287.997 675.782 287.972L675.784 287.995C675.586 288.007 675.387 288.02 675.188 288.039C665.772 288.918 658.852 297.264 659.731 306.679C660.61 316.095 668.956 323.016 678.371 322.137C678.571 322.118 678.768 322.094 678.965 322.068L678.967 322.093C678.769 322.104 678.57 322.118 678.371 322.137C668.956 323.016 662.035 331.361 662.914 340.777C663.2 343.84 664.276 346.638 665.922 348.99C663.2 350.397 660.569 351.946 658.037 353.627C654.999 355.643 652.105 357.849 649.368 360.225C648.586 360.904 647.817 361.597 647.061 362.304C643.283 365.836 639.836 369.707 636.765 373.861C636.15 374.692 635.551 375.534 634.967 376.388C634.384 377.24 633.816 378.105 633.263 378.979C632.711 379.854 632.173 380.739 631.653 381.634C630.351 383.872 629.15 386.173 628.055 388.53C627.398 389.944 626.779 391.379 626.2 392.832C625.235 395.254 624.38 397.729 623.639 400.249C623.343 401.257 623.065 402.272 622.806 403.294C622.483 404.571 622.189 405.86 621.924 407.158C621.713 408.196 621.52 409.241 621.348 410.291C621.046 412.13 620.804 413.987 620.624 415.859L171.999 457.742C162.82 425.951 135.702 402.466 103.201 397.7C103.478 396.189 103.555 394.616 103.406 393.011C102.527 383.595 94.1807 376.675 84.765 377.554C83.9763 377.628 83.2055 377.755 82.4549 377.929L82.4253 377.612C83.1954 377.644 83.9771 377.627 84.766 377.554C94.1815 376.675 101.101 368.329 100.222 358.913C99.3432 349.498 90.9982 342.577 81.5827 343.456C80.7939 343.53 80.0224 343.657 79.2717 343.832L79.2421 343.515C80.0122 343.547 80.7938 343.53 81.5827 343.456C90.9981 342.577 97.9179 334.232 97.0391 324.817C96.1601 315.401 87.8151 308.48 78.3995 309.359C77.6107 309.433 76.8392 309.56 76.0885 309.735L76.0588 309.417C76.8287 309.45 77.6099 309.433 78.3986 309.359C87.8143 308.48 94.7349 300.134 93.8558 290.719C92.9768 281.303 84.631 274.382 75.2153 275.261C74.4266 275.335 73.6558 275.462 72.9052 275.637L72.8756 275.319C73.6455 275.352 74.4266 275.335 75.2153 275.261C84.631 274.382 91.5516 266.037 90.6726 256.621C89.7933 247.205 81.4477 240.286 72.0321 241.165C71.2435 241.238 70.4725 241.364 69.722 241.539L69.6924 241.222C70.4625 241.255 71.2442 241.238 72.0331 241.164C81.4486 240.285 88.3683 231.94 87.4894 222.524C86.8251 215.408 81.8962 209.718 75.4637 207.742C112.644 196.183 138.002 159.939 134.423 119.649L587.512 77.3496C587.524 77.4788 587.535 77.6085 587.547 77.7378Z" fill="#EEF2FF"/>
<path d="M226.347 285.452C224.221 285.651 222.061 285.233 219.868 284.198C217.726 283.207 214.955 281.607 211.556 279.398C209.017 277.729 206.842 276.383 205.031 275.361C203.272 274.381 201.362 273.582 199.303 272.965C197.291 272.342 195.269 272.126 193.238 272.316C192.529 272.382 191.988 272.456 191.614 272.539L197.589 222.44C194.542 224.012 192.269 226.202 190.767 229.011C189.309 231.768 188.756 235.037 189.109 238.816C189.273 240.564 189.553 241.777 189.949 242.455C190.342 243.086 190.543 243.448 190.551 243.543C188 243.781 186.038 243.44 184.665 242.519C183.336 241.547 182.556 239.833 182.327 237.376C182.044 234.353 182.999 231.309 185.191 228.245C187.426 225.129 190.399 222.516 194.11 220.406C197.817 218.249 201.607 216.99 205.482 216.628C206.143 216.566 207.092 216.525 208.33 216.505L202.166 268.408C203.52 268.615 204.91 268.962 206.338 269.448C207.817 269.977 209.599 270.693 211.685 271.594C214.911 272.961 217.65 273.968 219.902 274.616C222.16 275.311 224.469 275.548 226.832 275.327C228.958 275.129 230.907 274.565 232.679 273.637C232.623 277.122 232.026 279.918 230.888 282.026C229.798 284.129 228.284 285.271 226.347 285.452ZM222.303 268.244C218.807 268.57 215.959 267.931 213.76 266.325C211.561 264.719 210.281 261.979 209.919 258.105C209.619 254.892 209.947 251.264 210.904 247.219C211.861 243.174 213.672 239.597 216.336 236.489C218.996 233.333 222.547 231.548 226.988 231.134C233.036 230.569 236.412 234.067 237.118 241.626L237.125 241.697C237.271 241.731 237.533 241.73 237.911 241.695C239.47 241.549 241.228 240.98 243.184 239.987C245.137 238.947 246.884 237.759 248.428 236.424L249.244 238.278C248.011 239.87 246.332 241.29 244.209 242.537C242.128 243.732 239.808 244.663 237.25 245.331C237.273 249.666 236.655 253.512 235.396 256.87C234.137 260.229 232.36 262.897 230.067 264.874C227.773 266.851 225.185 267.975 222.303 268.244ZM224.543 261.601C225.676 261.495 226.751 260.751 227.766 259.37C228.776 257.941 229.603 256.077 230.246 253.777C230.885 251.43 231.265 248.868 231.387 246.093C230.085 245.928 229.355 244.996 229.196 243.295C229.015 241.358 229.628 240.014 231.036 239.263C230.796 237.713 230.46 236.672 230.029 236.14C229.594 235.561 228.904 235.316 227.959 235.404C226.4 235.549 224.994 236.824 223.741 239.229C222.488 241.633 221.56 244.46 220.958 247.71C220.356 250.959 220.167 253.788 220.392 256.198C220.604 258.466 221.007 259.977 221.602 260.732C222.192 261.439 223.172 261.729 224.543 261.601ZM251.618 265.65C248.925 265.901 246.594 265.19 244.627 263.515C242.66 261.84 241.493 259.042 241.127 255.12C240.8 251.624 241.144 247.898 242.156 243.944C243.212 239.937 244.987 236.483 247.48 233.581C250.016 230.628 253.198 228.973 257.024 228.616C258.962 228.435 260.433 228.631 261.44 229.204C262.447 229.777 263.001 230.607 263.102 231.694L263.149 232.19L263.578 228.361L273.783 227.409L270.93 251.98C270.807 252.707 270.783 253.471 270.858 254.275C271.047 256.306 272.111 257.232 274.048 257.051C275.371 256.927 276.447 256.207 277.278 254.891C278.155 253.57 278.785 251.89 279.166 249.853L282.143 249.575C280.871 254.841 279.022 258.517 276.596 260.602C274.212 262.635 271.721 263.773 269.122 264.016C267.138 264.201 265.481 263.808 264.151 262.836C262.864 261.812 262.003 260.248 261.568 258.144C260.379 260.209 258.991 261.935 257.405 263.323C255.862 264.658 253.933 265.434 251.618 265.65ZM255.582 258.346C256.763 258.235 257.87 257.584 258.903 256.392C259.978 255.147 260.638 253.537 260.882 251.56L262.789 235.226C262.731 234.612 262.44 234.043 261.915 233.521C261.385 232.95 260.624 232.712 259.632 232.804C257.742 232.981 256.145 234.25 254.84 236.612C253.531 238.926 252.597 241.682 252.038 244.88C251.474 248.03 251.302 250.786 251.523 253.149C251.743 255.511 252.215 256.992 252.938 257.592C253.709 258.187 254.59 258.438 255.582 258.346ZM288.921 262.168C286.228 262.419 283.897 261.707 281.93 260.032C279.963 258.357 278.796 255.559 278.43 251.638C278.104 248.141 278.447 244.416 279.46 240.461C280.515 236.455 282.29 233 284.783 230.099C287.319 227.146 290.501 225.49 294.328 225.133C296.265 224.952 297.737 225.148 298.743 225.722C299.75 226.295 300.304 227.125 300.405 228.211L300.432 228.495L302.383 211.871L312.739 209.474L308.162 248.504C308.039 249.231 308.008 249.925 308.07 250.586C308.247 252.476 309.303 253.33 311.241 253.15C312.091 253.07 312.834 252.858 313.469 252.513C313.5 254.893 312.82 256.791 311.427 258.208C310.077 259.573 308.386 260.35 306.354 260.54C304.465 260.716 302.814 260.394 301.403 259.573C300.035 258.699 299.045 257.291 298.435 255.346C295.966 259.532 292.795 261.806 288.921 262.168ZM292.885 254.863C293.925 254.766 294.922 254.22 295.878 253.226C296.881 252.226 297.567 250.899 297.937 249.245L298.114 248.084L300.072 231.531C299.492 229.917 298.447 229.181 296.935 229.322C295.045 229.498 293.448 230.767 292.143 233.129C290.834 235.444 289.9 238.2 289.341 241.397C288.777 244.548 288.605 247.304 288.826 249.666C289.046 252.029 289.518 253.51 290.242 254.109C291.012 254.705 291.893 254.956 292.885 254.863Z" fill="#E9006F"/>
<path d="M281.588 283.402L291.944 281.005L289.122 305.145C291.372 304.745 293.358 303.558 295.081 301.587C296.85 299.61 298.155 297.249 298.994 294.501C299.834 291.754 300.135 289.105 299.897 286.554C299.632 283.719 298.683 281.472 297.051 279.814C295.419 278.155 293.138 277.462 290.209 277.736C284.445 278.274 280.074 280.207 277.096 283.535C274.166 286.859 272.954 291.237 273.462 296.671C273.625 298.419 273.905 299.632 274.302 300.31C274.694 300.94 274.895 301.303 274.904 301.397C272.352 301.635 270.39 301.294 269.018 300.374C267.688 299.402 266.908 297.688 266.679 295.231C266.397 292.207 267.352 289.163 269.544 286.099C271.779 282.983 274.752 280.37 278.463 278.261C282.169 276.104 285.96 274.844 289.834 274.483C293.566 274.134 296.744 274.481 299.367 275.523C301.99 276.565 303.992 278.093 305.371 280.109C306.794 282.073 307.624 284.331 307.862 286.882C308.149 289.953 307.579 293.033 306.151 296.121C304.771 299.204 302.61 301.837 299.668 304.018C296.722 306.151 293.217 307.408 289.154 307.787L288.8 307.82L286.362 328.422L276.157 329.374L281.588 283.402ZM320.494 325.521C316.998 325.848 314.15 325.208 311.951 323.602C309.752 321.997 308.471 319.257 308.11 315.382C307.81 312.17 308.138 308.541 309.095 304.496C310.052 300.451 311.863 296.874 314.527 293.766C317.187 290.611 320.738 288.826 325.179 288.411C331.227 287.847 334.603 291.344 335.309 298.903L335.316 298.974C335.462 299.008 335.724 299.008 336.102 298.972C337.661 298.827 339.419 298.257 341.375 297.265C343.328 296.225 345.075 295.037 346.619 293.701L347.435 295.555C346.202 297.148 344.523 298.567 342.4 299.814C340.319 301.009 337.999 301.941 335.44 302.608C335.464 306.943 334.846 310.789 333.587 314.148C332.328 317.506 330.551 320.174 328.258 322.151C325.964 324.129 323.376 325.252 320.494 325.521ZM322.733 318.878C323.867 318.772 324.942 318.029 325.957 316.647C326.967 315.219 327.794 313.354 328.437 311.054C329.076 308.707 329.456 306.146 329.578 303.37C328.276 303.206 327.546 302.273 327.387 300.572C327.206 298.635 327.819 297.291 329.226 296.54C328.986 294.99 328.651 293.949 328.22 293.417C327.785 292.838 327.095 292.593 326.15 292.681C324.591 292.827 323.185 294.102 321.932 296.506C320.679 298.911 319.751 301.738 319.149 304.987C318.547 308.236 318.358 311.066 318.583 313.475C318.795 315.743 319.198 317.254 319.793 318.009C320.383 318.716 321.363 319.006 322.733 318.878ZM342.775 287.412L352.981 286.459L352.47 290.939C353.944 289.372 355.283 288.15 356.488 287.275C357.74 286.396 359.123 285.886 360.634 285.744C362.146 285.603 363.376 286.013 364.323 286.973C365.318 287.928 365.884 289.139 366.021 290.603C366.149 291.973 365.812 293.22 365.012 294.343C364.211 295.466 363.007 296.103 361.401 296.253C360.362 296.35 359.631 296.18 359.209 295.743C358.83 295.254 358.501 294.546 358.224 293.619C358.025 293.018 357.841 292.582 357.673 292.312C357.505 292.042 357.232 291.924 356.854 291.959C355.862 292.052 355.031 292.344 354.362 292.835C353.736 293.275 352.926 294.042 351.932 295.135L348.777 322.595L338.571 323.548L342.775 287.412ZM374.965 320.579C372.697 320.791 370.789 320.254 369.239 318.969C367.737 317.679 366.853 315.617 366.588 312.783C366.478 311.601 366.524 310.048 366.725 308.123L369.118 287.812L366.78 288.03L367.082 285.143L369.421 284.924L370.634 274.946L380.99 272.549L379.626 283.971L383.878 283.575L383.576 286.462L379.323 286.859L376.773 308.543C376.65 309.27 376.626 310.034 376.701 310.838C376.789 311.783 377.066 312.448 377.531 312.833C378.038 313.167 378.812 313.286 379.851 313.189C381.221 313.061 382.444 312.375 383.519 311.13C384.59 309.839 385.3 308.248 385.647 306.357L388.624 306.079C387.352 311.344 385.432 315.027 382.864 317.125C380.291 319.176 377.658 320.327 374.965 320.579ZM382.079 337.358C379.859 337.565 377.853 337.013 376.063 335.703C374.23 334.444 373.209 332.705 373.002 330.484C372.812 328.453 373.176 326.727 374.091 325.307C375.007 323.887 376.255 322.698 377.833 321.741C379.416 320.831 381.538 319.822 384.199 318.716L388.996 277.449C389.518 272.825 390.878 269.529 393.077 267.561C395.324 265.587 397.888 264.466 400.77 264.197C402.99 263.99 404.996 264.542 406.786 265.852C408.619 267.11 409.64 268.85 409.847 271.071C409.948 272.157 409.968 273.132 409.906 273.996L406.575 274.307C406.572 273.259 406.56 272.616 406.538 272.38C406.467 271.624 406.152 271.058 405.593 270.681C405.034 270.305 404.376 270.152 403.62 270.222C402.628 270.315 401.701 270.854 400.84 271.84C399.974 272.779 399.428 274.331 399.202 276.496L398.52 282.208L403.693 281.725L403.462 284.606L398.217 285.095L393.64 324.125C393.123 328.797 391.786 332.091 389.63 334.008C387.478 335.972 384.961 337.088 382.079 337.358ZM379.86 331.202C381.75 331.026 382.925 329.058 383.384 325.297L383.921 321.101C381.497 322.185 379.674 323.332 378.452 324.543C377.188 325.804 376.64 327.333 376.807 329.128C376.86 329.695 377.192 330.188 377.803 330.608C378.419 331.075 379.104 331.273 379.86 331.202ZM416.071 316.598C412.574 316.925 409.727 316.285 407.527 314.68C405.328 313.074 404.048 310.334 403.686 306.46C403.386 303.247 403.715 299.618 404.671 295.573C405.628 291.528 407.439 287.952 410.104 284.843C412.764 281.688 416.314 279.903 420.756 279.488C426.803 278.924 430.18 282.421 430.885 289.981L430.892 290.051C431.038 290.085 431.3 290.085 431.678 290.05C433.237 289.904 434.995 289.335 436.952 288.342C438.904 287.302 440.652 286.114 442.195 284.778L443.011 286.632C441.778 288.225 440.1 289.645 437.976 290.891C435.895 292.086 433.576 293.018 431.017 293.686C431.04 298.02 430.422 301.867 429.163 305.225C427.904 308.583 426.128 311.251 423.834 313.229C421.54 315.206 418.953 316.329 416.071 316.598ZM418.31 309.956C419.444 309.85 420.518 309.106 421.533 307.725C422.543 306.296 423.37 304.431 424.013 302.131C424.652 299.784 425.032 297.223 425.154 294.447C423.852 294.283 423.122 293.35 422.963 291.649C422.782 289.712 423.396 288.368 424.803 287.617C424.563 286.067 424.227 285.026 423.796 284.494C423.361 283.916 422.671 283.67 421.726 283.758C420.167 283.904 418.761 285.179 417.508 287.584C416.255 289.988 415.328 292.815 414.725 296.064C414.123 299.314 413.935 302.143 414.16 304.553C414.371 306.82 414.775 308.332 415.369 309.086C415.959 309.794 416.94 310.083 418.31 309.956ZM443.897 314.144C441.629 314.355 439.72 313.819 438.17 312.534C436.668 311.244 435.784 309.182 435.52 306.347C435.409 305.166 435.455 303.613 435.656 301.688L439.925 265.475L450.281 263.078L445.704 302.108C445.581 302.834 445.557 303.599 445.632 304.402C445.72 305.347 445.997 306.013 446.462 306.398C446.97 306.732 447.743 306.85 448.783 306.753C450.153 306.625 451.375 305.939 452.451 304.695C453.522 303.404 454.231 301.812 454.579 299.921L457.555 299.644C456.283 304.909 454.363 308.591 451.795 310.69C449.222 312.741 446.59 313.892 443.897 314.144ZM463.904 272.243C462.345 272.389 460.972 271.969 459.784 270.984C458.595 269.999 457.929 268.726 457.783 267.167C457.638 265.608 458.057 264.235 459.043 263.046C460.023 261.811 461.293 261.121 462.852 260.975C464.412 260.829 465.787 261.273 466.98 262.305C468.215 263.286 468.906 264.556 469.051 266.115C469.197 267.674 468.753 269.05 467.721 270.243C466.736 271.431 465.464 272.098 463.904 272.243ZM462.79 312.38C460.523 312.592 458.614 312.055 457.064 310.77C455.562 309.48 454.678 307.418 454.413 304.583C454.303 303.402 454.349 301.849 454.55 299.924L457.246 276.725L467.451 275.772L464.598 300.344C464.475 301.071 464.451 301.835 464.526 302.639C464.614 303.583 464.891 304.249 465.356 304.634C465.863 304.968 466.637 305.086 467.676 304.989C469.046 304.862 470.269 304.175 471.344 302.931C472.415 301.64 473.125 300.049 473.472 298.158L476.449 297.88C475.177 303.145 473.257 306.827 470.689 308.926C468.116 310.977 465.483 312.128 462.79 312.38ZM485.002 310.163C481.506 310.49 478.658 309.85 476.459 308.244C474.259 306.639 472.979 303.899 472.617 300.024C472.313 296.765 472.618 293.138 473.532 289.145C474.441 285.104 476.205 281.532 478.822 278.428C481.435 275.277 484.986 273.492 489.474 273.073C495.049 272.553 498.347 275.462 499.368 281.8C500.385 281.467 501.253 280.814 501.973 279.841C502.688 278.821 503.344 277.688 503.943 276.44L506.211 276.229C505.173 278.899 504.227 281.013 503.371 282.57C502.512 284.08 501.32 285.359 499.798 286.407C499.929 290.874 499.371 294.858 498.126 298.358C496.927 301.854 495.185 304.637 492.9 306.709C490.611 308.734 487.978 309.885 485.002 310.163ZM487.241 303.52C488.989 303.357 490.487 301.788 491.734 298.812C492.981 295.836 493.694 292.243 493.873 288.032C492.7 287.713 492.033 286.703 491.875 285.002C491.703 283.159 492.249 281.869 493.515 281.131C493.279 279.628 492.922 278.613 492.444 278.086C492.009 277.507 491.342 277.259 490.445 277.343C488.886 277.489 487.503 278.761 486.298 281.162C485.087 283.515 484.184 286.339 483.586 289.636C483.031 292.881 482.866 295.708 483.091 298.117C483.303 300.385 483.706 301.896 484.3 302.651C484.891 303.359 485.871 303.648 487.241 303.52ZM515.07 290.485C514.858 288.218 514.999 286.155 515.493 284.298C516.029 282.389 516.708 280.729 517.53 279.318C518.399 277.903 519.531 276.248 520.927 274.354C522.747 271.897 524.073 269.771 524.907 267.978C525.783 266.133 526.113 264.053 525.897 261.738C525.707 259.706 525.158 258.161 524.249 257.102C523.34 256.043 522.129 255.584 520.617 255.725C519.058 255.871 517.788 256.561 516.807 257.797C515.869 258.98 515.478 260.399 515.632 262.053C515.747 263.281 516.16 264.386 516.871 265.368C517.578 266.303 518.473 266.958 519.556 267.334L519.583 267.617C518.803 268.452 517.961 269.127 517.055 269.64C516.197 270.149 515.343 270.444 514.493 270.523C512.981 270.664 511.678 270.238 510.584 269.244C509.534 268.198 508.927 266.801 508.763 265.053C508.556 262.832 509.007 260.765 510.115 258.85C511.27 256.932 512.909 255.349 515.033 254.102C517.156 252.855 519.588 252.104 522.328 251.848C526.155 251.491 529.261 252.083 531.645 253.623C534.028 255.164 535.361 257.447 535.644 260.47C535.816 262.313 535.573 264.051 534.915 265.685C534.253 267.272 533.363 268.714 532.245 270.009C531.174 271.301 529.721 272.842 527.887 274.634C525.929 276.628 524.393 278.296 523.279 279.639C522.165 280.982 521.239 282.546 520.5 284.331C519.804 286.064 519.553 287.97 519.747 290.049L515.07 290.485ZM518.093 306.788C516.581 306.929 515.207 306.509 513.972 305.529C512.732 304.5 512.039 303.207 511.894 301.648C511.748 300.089 512.168 298.715 513.153 297.527C514.186 296.334 515.482 295.665 517.041 295.52C518.6 295.374 519.974 295.794 521.162 296.779C522.397 297.76 523.087 299.03 523.233 300.589C523.379 302.148 522.937 303.548 521.909 304.788C520.924 305.976 519.652 306.642 518.093 306.788Z" fill="#E9006F"/>
<rect x="150.72" y="158.413" width="429.495" height="243.517" rx="22.1043" transform="rotate(-5.39028 150.72 158.413)" stroke="#5968C2" stroke-width="0.834125"/>
</g>
<defs>
<filter id="filter0_d_316_4935" x="-9.00018" y="0" width="764.219" height="553.215" filterUnits="userSpaceOnUse" color-interpolation-filters="sRGB">
<feFlood flood-opacity="0" result="BackgroundImageFix"/>
<feColorMatrix in="SourceAlpha" type="matrix" values="0 0 0 0 0 0 0 0 0 0 0 0 0 0 0 0 0 0 127 0" result="hardAlpha"/>
<feOffset dy="9.00018"/>
<feGaussianBlur stdDeviation="4.50009"/>
<feComposite in2="hardAlpha" operator="out"/>
<feColorMatrix type="matrix" values="0 0 0 0 0.371686 0 0 0 0 0.42868 0 0 0 0 0.770639 0 0 0 0.44 0"/>
<feBlend mode="normal" in2="BackgroundImageFix" result="effect1_dropShadow_316_4935"/>
<feBlend mode="normal" in="SourceGraphic" in2="effect1_dropShadow_316_4935" result="shape"/>
</filter>
</defs>
</svg>
