<svg width="747" height="536" viewBox="0 0 747 536" fill="none" xmlns="http://www.w3.org/2000/svg">
<g filter="url(#filter0_d_314_4877)">
<path d="M558.227 89.7185C561.48 124.567 587.798 151.707 620.689 157.465C614.854 160.091 611.055 166.212 611.683 172.939C612.473 181.405 619.977 187.628 628.443 186.838C628.622 186.821 628.8 186.799 628.977 186.776L628.979 186.797C628.801 186.808 628.622 186.821 628.443 186.838C619.977 187.628 613.755 195.132 614.545 203.598C615.335 212.064 622.839 218.287 631.305 217.496C631.484 217.48 631.663 217.458 631.84 217.436L631.842 217.456C631.663 217.467 631.484 217.48 631.305 217.496C622.839 218.287 616.617 225.791 617.407 234.257C618.198 242.723 625.701 248.946 634.167 248.156C634.347 248.139 634.525 248.118 634.702 248.095L634.704 248.116C634.526 248.126 634.346 248.139 634.167 248.156C625.701 248.947 619.479 256.45 620.269 264.916C621.06 273.382 628.563 279.605 637.029 278.815C637.209 278.798 637.387 278.777 637.564 278.754L637.566 278.774C637.388 278.785 637.209 278.798 637.029 278.815C628.563 279.605 622.341 287.109 623.132 295.576C623.922 304.042 631.426 310.265 639.892 309.474C640.071 309.458 640.249 309.436 640.427 309.414L640.428 309.434C640.25 309.445 640.071 309.458 639.892 309.474C631.426 310.265 625.204 317.768 625.994 326.234C626.251 328.988 627.218 331.505 628.698 333.619C625.412 335.318 622.272 337.247 619.299 339.384C618.54 339.93 617.791 340.488 617.054 341.06C616.317 341.632 615.591 342.218 614.877 342.816C614.162 343.414 613.459 344.024 612.767 344.647C612.422 344.958 612.079 345.273 611.739 345.59C610.72 346.543 609.728 347.524 608.763 348.53C608.442 348.866 608.124 349.204 607.809 349.545C606.547 350.91 605.336 352.319 604.178 353.772C603.889 354.135 603.603 354.501 603.32 354.869C602.754 355.606 602.202 356.354 601.663 357.111C601.394 357.49 601.128 357.87 600.865 358.254C600.34 359.021 599.829 359.798 599.332 360.585C597.842 362.944 596.479 365.388 595.252 367.907C594.843 368.746 594.449 369.594 594.071 370.45C592.368 374.301 590.979 378.312 589.931 382.447C589.698 383.366 589.482 384.291 589.283 385.222C588.687 388.015 588.246 390.86 587.969 393.746L184.58 431.405C176.327 402.82 151.944 381.703 122.72 377.417C122.969 376.059 123.039 374.644 122.904 373.201C122.114 364.735 114.61 358.513 106.143 359.304C105.434 359.37 104.741 359.483 104.066 359.64L104.039 359.356C104.732 359.385 105.434 359.37 106.143 359.304C114.61 358.513 120.832 351.009 120.042 342.543C119.252 334.076 111.747 327.853 103.281 328.644C102.572 328.71 101.879 328.824 101.204 328.981L101.177 328.696C101.87 328.726 102.572 328.71 103.281 328.644C111.747 327.853 117.97 320.349 117.18 311.883C116.389 303.417 108.885 297.195 100.419 297.985C99.7097 298.051 99.0165 298.165 98.3416 298.322L98.315 298.037C99.0073 298.067 99.7097 298.051 100.419 297.985C108.885 297.195 115.108 289.691 114.318 281.224C113.527 272.758 106.023 266.535 97.5566 267.326C96.8474 267.392 96.1542 267.506 95.4793 267.663L95.4528 267.379C96.1451 267.408 96.8474 267.392 97.5566 267.326C106.023 266.535 112.246 259.031 111.455 250.565C110.665 242.098 103.161 235.877 94.6944 236.667C93.9853 236.733 93.2918 236.846 92.617 237.003L92.5905 236.719C93.2828 236.749 93.9852 236.733 94.6944 236.667C103.161 235.876 109.383 228.372 108.593 219.906C107.996 213.508 103.564 208.392 97.7806 206.615C131.211 196.221 154.012 163.631 150.794 127.404L558.196 89.3702C558.206 89.4863 558.216 89.6024 558.227 89.7185Z" fill="#EEF2FF"/>
<path d="M207.228 222.146L216.54 219.991L214.003 241.697C216.026 241.337 217.812 240.27 219.36 238.497C220.951 236.72 222.124 234.596 222.879 232.126C223.634 229.656 223.905 227.274 223.691 224.98C223.453 222.431 222.6 220.411 221.132 218.92C219.665 217.428 217.614 216.805 214.98 217.051C209.797 217.535 205.867 219.273 203.19 222.266C200.555 225.254 199.465 229.191 199.921 234.077C200.068 235.649 200.32 236.739 200.677 237.349C201.03 237.916 201.21 238.242 201.218 238.327C198.924 238.541 197.16 238.234 195.926 237.407C194.73 236.533 194.029 234.991 193.823 232.782C193.569 230.063 194.427 227.326 196.399 224.571C198.408 221.769 201.081 219.42 204.418 217.523C207.751 215.584 211.159 214.451 214.643 214.126C217.999 213.813 220.856 214.124 223.215 215.061C225.573 215.998 227.373 217.373 228.613 219.185C229.892 220.951 230.639 222.981 230.853 225.275C231.111 228.037 230.598 230.806 229.315 233.582C228.074 236.355 226.131 238.722 223.485 240.683C220.836 242.602 217.685 243.731 214.032 244.072L213.713 244.102L211.521 262.626L202.345 263.483L207.228 222.146ZM234.243 228.366L243.419 227.509L242.959 231.537C244.285 230.128 245.489 229.03 246.573 228.243C247.699 227.452 248.941 226.994 250.301 226.867C251.66 226.74 252.766 227.108 253.618 227.971C254.512 228.83 255.021 229.918 255.144 231.235C255.259 232.467 254.956 233.588 254.237 234.598C253.517 235.608 252.434 236.181 250.99 236.315C250.055 236.403 249.398 236.25 249.019 235.857C248.678 235.417 248.383 234.781 248.134 233.947C247.955 233.406 247.789 233.015 247.638 232.772C247.487 232.529 247.241 232.423 246.902 232.455C246.009 232.538 245.263 232.801 244.661 233.242C244.098 233.638 243.37 234.327 242.476 235.311L239.639 260.001L230.462 260.858L234.243 228.366ZM264.188 222.099C262.786 222.23 261.551 221.852 260.483 220.967C259.415 220.081 258.815 218.937 258.684 217.535C258.553 216.133 258.931 214.898 259.817 213.83C260.699 212.719 261.84 212.098 263.242 211.967C264.644 211.836 265.881 212.235 266.954 213.163C268.064 214.045 268.685 215.187 268.816 216.589C268.947 217.991 268.548 219.228 267.62 220.3C266.734 221.369 265.59 221.968 264.188 222.099ZM263.187 258.188C261.147 258.379 259.431 257.896 258.038 256.741C256.687 255.581 255.892 253.727 255.654 251.178C255.555 250.116 255.596 248.72 255.777 246.989L258.201 226.129L267.377 225.272L264.812 247.367C264.701 248.02 264.68 248.707 264.747 249.429C264.826 250.279 265.075 250.877 265.493 251.224C265.95 251.524 266.645 251.631 267.58 251.543C268.812 251.428 269.911 250.811 270.878 249.693C271.841 248.532 272.479 247.101 272.791 245.4L275.468 245.15C274.324 249.885 272.598 253.196 270.289 255.083C267.975 256.927 265.608 257.962 263.187 258.188ZM285.259 271.812C283.22 272.002 281.471 271.63 280.012 270.695C278.554 269.759 277.731 268.294 277.545 266.297C277.319 263.875 278.113 261.83 279.929 260.161C281.748 258.534 284.12 257.091 287.045 255.833L287.489 252.32C286.384 253.795 285.218 254.846 283.991 255.475C282.764 256.104 281.492 256.48 280.175 256.602C278.136 256.793 276.42 256.31 275.026 255.155C273.675 253.995 272.881 252.141 272.643 249.592C272.544 248.53 272.585 247.134 272.766 245.403L275.19 224.543L284.366 223.686L281.8 245.781C281.72 246.302 281.706 246.839 281.758 247.391C281.932 249.261 282.657 250.136 283.931 250.017C285.036 249.914 285.969 249.355 286.732 248.341C287.49 247.285 288.051 245.947 288.414 244.328L290.929 223.074L300.105 222.217L296.557 252.373C298.533 251.503 300.073 250.331 301.178 248.857C302.283 247.382 303.136 245.267 303.735 242.511L306.412 242.262C305.618 246.15 304.327 249.077 302.539 251.044C300.748 252.968 298.65 254.364 296.245 255.231L295.718 259.908C295.253 264.108 294.051 267.07 292.112 268.794C290.177 270.56 287.893 271.566 285.259 271.812ZM283.329 266.978C284.051 266.911 284.707 266.357 285.295 265.316C285.884 264.276 286.284 262.824 286.496 260.962L286.706 259.078C282.685 260.996 280.772 262.996 280.966 265.078C281.018 265.63 281.255 266.101 281.677 266.49C282.099 266.879 282.65 267.042 283.329 266.978ZM312.504 253.584C310.082 253.81 307.987 253.17 306.218 251.664C304.449 250.158 303.4 247.642 303.071 244.116C302.777 240.973 303.086 237.623 303.997 234.067C304.946 230.464 306.541 227.358 308.783 224.749C311.064 222.094 313.924 220.606 317.365 220.284C319.107 220.122 320.431 220.298 321.336 220.814C322.241 221.329 322.739 222.075 322.83 223.052L322.872 223.498L323.258 220.056L332.434 219.199L329.868 241.293C329.758 241.946 329.736 242.634 329.804 243.356C329.974 245.183 330.93 246.015 332.672 245.852C333.862 245.741 334.83 245.094 335.576 243.91C336.365 242.722 336.931 241.212 337.275 239.38L339.951 239.131C338.807 243.865 337.145 247.17 334.963 249.045C332.82 250.874 330.58 251.897 328.243 252.115C326.459 252.282 324.969 251.928 323.773 251.054C322.616 250.133 321.842 248.727 321.451 246.835C320.382 248.692 319.134 250.244 317.708 251.492C316.32 252.692 314.585 253.39 312.504 253.584ZM316.069 247.017C317.131 246.917 318.126 246.332 319.054 245.259C320.021 244.141 320.614 242.693 320.834 240.915L322.548 226.228C322.497 225.676 322.235 225.165 321.762 224.695C321.286 224.182 320.602 223.967 319.71 224.051C318.01 224.209 316.574 225.35 315.401 227.474C314.224 229.555 313.384 232.033 312.881 234.908C312.374 237.741 312.22 240.22 312.418 242.344C312.617 244.468 313.041 245.799 313.691 246.339C314.384 246.874 315.176 247.1 316.069 247.017ZM361.402 249.019C358.811 249.261 356.836 248.76 355.477 247.516C354.157 246.225 353.401 244.56 353.211 242.521C353.128 241.629 353.141 240.62 353.25 239.496C353.355 238.329 353.465 237.205 353.578 236.123C353.734 235.037 353.84 234.341 353.897 234.036C354.098 232.518 354.28 231.022 354.443 229.55C354.605 228.078 354.645 226.896 354.561 226.004C354.359 223.837 353.493 222.825 351.964 222.968C350.86 223.071 349.934 223.714 349.187 224.898C348.437 226.04 347.888 227.505 347.541 229.294L345.117 250.154L335.941 251.011L339.721 218.519L348.898 217.662L348.506 221.041C350.408 218.464 352.782 217.042 355.628 216.776C357.795 216.574 359.571 217.008 360.957 218.079C362.342 219.149 363.148 220.895 363.374 223.317C363.489 224.549 363.469 225.943 363.314 227.5C363.156 229.015 362.902 230.881 362.552 233.1C362.335 234.448 362.137 235.774 361.959 237.076C361.819 238.332 361.783 239.321 361.85 240.043C361.929 240.893 362.182 241.533 362.608 241.965C363.034 242.396 363.714 242.569 364.649 242.481C365.923 242.362 366.901 241.821 367.583 240.858C368.26 239.852 368.892 238.357 369.478 236.374L372.154 236.124C371.019 240.944 369.486 244.258 367.555 246.067C365.662 247.829 363.612 248.813 361.402 249.019ZM394.531 245.927C391.897 246.172 389.843 245.743 388.368 244.638C386.89 243.49 386.042 241.748 385.824 239.412C385.728 238.392 385.753 237.276 385.897 236.062L386.174 233.53C386.277 232.792 386.288 231.998 386.209 231.148C386.019 229.109 385.159 228.161 383.63 228.304C382.95 228.367 382.246 228.626 381.517 229.079C380.83 229.529 380.036 230.203 379.134 231.102L377.29 247.15L368.114 248.007L373.308 203.813L382.62 201.658L379.935 224.535L391.33 213.701L397.638 213.112L385.72 223.159C386.342 222.93 387.035 222.779 387.8 222.708C390.094 222.494 391.901 223.032 393.221 224.323C394.541 225.614 395.303 227.342 395.505 229.509C395.588 230.401 395.579 231.216 395.476 231.954L395.073 235.206C394.932 235.99 394.889 236.68 394.944 237.275C395.091 238.846 395.993 239.555 397.65 239.4C398.924 239.281 399.902 238.74 400.584 237.777C401.261 236.771 401.893 235.276 402.479 233.293L405.155 233.043C403.255 241.148 399.714 245.443 394.531 245.927ZM411.199 244.37C408.778 244.597 406.683 243.956 404.914 242.45C403.145 240.944 402.096 238.428 401.766 234.902C401.473 231.759 401.782 228.409 402.692 224.853C403.642 221.25 405.237 218.144 407.479 215.535C409.759 212.88 412.62 211.392 416.061 211.07C417.803 210.908 419.126 211.084 420.032 211.6C420.937 212.115 421.435 212.861 421.526 213.838L421.568 214.284L421.953 210.842L431.129 209.985L428.564 232.079C428.454 232.732 428.432 233.42 428.5 234.142C428.579 234.992 428.828 235.59 429.246 235.936C429.702 236.237 430.398 236.343 431.332 236.256C431.927 236.2 432.386 236.072 432.71 235.87C431.998 238.336 431.262 240.098 430.504 241.154C429.742 242.168 428.553 242.75 426.939 242.901C425.197 243.064 423.726 242.687 422.527 241.77C421.366 240.807 420.57 239.403 420.141 237.558C417.918 241.751 414.938 244.021 411.199 244.37ZM414.764 237.803C415.826 237.703 416.822 237.118 417.75 236.046C418.717 234.927 419.31 233.479 419.53 231.701L421.244 217.014C421.193 216.462 420.931 215.951 420.458 215.481C419.982 214.968 419.298 214.753 418.405 214.837C416.706 214.995 415.27 216.137 414.097 218.26C412.92 220.341 412.08 222.819 411.577 225.694C411.07 228.527 410.916 231.006 411.114 233.13C411.312 235.254 411.737 236.585 412.387 237.125C413.08 237.66 413.872 237.886 414.764 237.803Z" fill="#E9006F"/>
<path d="M288.213 328.516C285.112 328.806 282.53 328.233 280.467 326.797C278.451 325.399 277.322 323.405 277.081 320.814C276.93 319.199 277.173 317.677 277.811 316.246C278.449 314.815 279.391 313.656 280.636 312.768C281.878 311.838 283.284 311.3 284.856 311.153C286.471 311.002 287.804 311.285 288.856 312.001C289.951 312.713 290.56 313.727 290.683 315.044C290.778 316.064 290.62 316.893 290.208 317.531C289.778 317.057 289.21 316.703 288.502 316.469C287.837 316.231 287.144 316.146 286.421 316.213C285.147 316.332 284.146 316.854 283.418 317.779C282.69 318.704 282.39 319.847 282.517 321.206C282.643 322.565 283.129 323.634 283.973 324.413C284.859 325.187 285.897 325.518 287.087 325.407C288.574 325.269 289.787 324.491 290.726 323.075C291.665 321.659 292.29 319.629 292.6 316.986L294.471 302.606L294.217 302.63C293.22 304.351 291.933 305.714 290.356 306.719C288.821 307.719 287.076 308.31 285.122 308.493C282.658 308.723 280.43 308.267 278.438 307.124C276.446 305.982 274.827 304.247 273.581 301.921C272.374 299.548 271.62 296.748 271.318 293.519C270.882 288.846 271.505 284.503 273.187 280.489C274.866 276.433 277.386 273.133 280.748 270.591C284.11 268.049 287.937 266.578 292.228 266.177C295.838 265.84 298.758 266.36 300.986 267.738C303.257 269.111 304.52 271.157 304.773 273.876C304.944 275.703 304.635 277.21 303.846 278.398C303.057 279.586 301.94 280.247 300.496 280.382C299.689 280.457 298.908 280.359 298.154 280.086C297.443 279.81 296.824 279.375 296.297 278.781C297.014 278.2 297.576 277.334 297.982 276.181C298.428 274.983 298.597 273.81 298.49 272.663C298.371 271.389 297.897 270.447 297.069 269.839C296.279 269.184 295.205 268.92 293.845 269.047C291.381 269.277 289.105 270.604 287.018 273.027C284.926 275.408 283.344 278.427 282.271 282.083C281.198 285.74 280.842 289.502 281.203 293.368C281.501 296.554 282.238 298.949 283.417 300.553C284.591 302.115 286.134 302.806 288.046 302.628C290.34 302.413 292.244 301.014 293.76 298.43C295.318 295.842 296.412 292.183 297.042 287.454L304.567 286.815L301.914 308.661C301.146 315.117 299.647 319.95 297.418 323.157C295.232 326.361 292.164 328.147 288.213 328.516ZM318.428 312.647C315.285 312.94 312.724 312.365 310.747 310.921C308.769 309.478 307.618 307.014 307.293 303.53C307.023 300.642 307.318 297.379 308.179 293.742C309.039 290.105 310.667 286.889 313.063 284.094C315.455 281.257 318.648 279.652 322.641 279.279C328.079 278.771 331.115 281.916 331.749 288.713L331.755 288.777C331.887 288.807 332.122 288.807 332.462 288.775C333.864 288.644 335.445 288.132 337.204 287.24C338.959 286.304 340.531 285.236 341.919 284.036L342.653 285.702C341.544 287.134 340.035 288.411 338.125 289.532C336.254 290.606 334.168 291.444 331.868 292.044C331.889 295.942 331.333 299.401 330.201 302.42C329.069 305.44 327.471 307.839 325.409 309.617C323.347 311.395 321.02 312.405 318.428 312.647ZM320.442 306.674C321.462 306.579 322.428 305.91 323.34 304.668C324.249 303.383 324.992 301.707 325.57 299.639C326.145 297.528 326.487 295.225 326.596 292.729C325.426 292.582 324.769 291.743 324.626 290.214C324.463 288.472 325.015 287.263 326.28 286.588C326.064 285.194 325.763 284.258 325.375 283.78C324.984 283.26 324.363 283.039 323.514 283.118C322.112 283.249 320.848 284.396 319.721 286.558C318.594 288.72 317.76 291.262 317.219 294.183C316.678 297.105 316.508 299.649 316.71 301.816C316.901 303.855 317.263 305.214 317.798 305.892C318.329 306.528 319.21 306.789 320.442 306.674ZM344.787 310.315C342.365 310.541 340.27 309.901 338.501 308.395C336.732 306.889 335.683 304.373 335.354 300.847C335.06 297.703 335.369 294.353 336.28 290.797C337.229 287.194 338.825 284.089 341.066 281.48C343.347 278.824 346.207 277.336 349.648 277.015C351.39 276.852 352.714 277.028 353.619 277.544C354.524 278.059 355.022 278.806 355.113 279.783L355.137 280.037L356.891 265.09L366.203 262.935L362.088 298.029C361.977 298.682 361.956 299.37 362.023 300.092C362.103 300.942 362.351 301.54 362.769 301.887C363.226 302.187 363.921 302.293 364.856 302.206C366.045 302.095 367.017 301.49 367.772 300.391C368.569 299.288 369.143 297.863 369.494 296.117L372.17 295.867C370.289 303.713 366.374 307.914 360.427 308.469C358.685 308.631 357.218 308.297 356.027 307.466C354.877 306.63 354.092 305.332 353.67 303.572C352.725 305.374 351.517 306.901 350.049 308.152C348.622 309.4 346.868 310.12 344.787 310.315ZM348.352 303.747C349.371 303.652 350.347 303.089 351.28 302.059C352.254 301.026 352.856 299.663 353.083 297.97L353.053 297.651L354.814 282.767C354.292 281.316 353.352 280.654 351.993 280.781C350.293 280.94 348.857 282.081 347.684 284.204C346.507 286.285 345.667 288.764 345.164 291.639C344.658 294.471 344.503 296.95 344.702 299.074C344.9 301.198 345.324 302.53 345.974 303.069C346.667 303.604 347.46 303.83 348.352 303.747ZM393.623 305.755C391.032 305.997 389.057 305.496 387.698 304.252C386.378 302.961 385.622 301.296 385.432 299.257C385.349 298.365 385.362 297.356 385.471 296.232C385.576 295.065 385.686 293.941 385.799 292.859C385.955 291.773 386.061 291.078 386.118 290.772C386.319 289.254 386.501 287.758 386.664 286.286C386.826 284.814 386.866 283.632 386.782 282.74C386.58 280.573 385.714 279.561 384.185 279.704C383.08 279.807 382.155 280.451 381.408 281.634C380.658 282.776 380.109 284.241 379.762 286.031L377.338 306.89L368.162 307.747L373.357 263.553L382.669 261.398L380.727 277.777C382.629 275.2 385.003 273.778 387.849 273.513C390.016 273.31 391.792 273.744 393.177 274.815C394.563 275.885 395.369 277.631 395.595 280.053C395.71 281.285 395.69 282.679 395.535 284.237C395.377 285.751 395.123 287.618 394.773 289.836C394.556 291.184 394.358 292.51 394.18 293.812C394.04 295.068 394.004 296.057 394.071 296.779C394.15 297.629 394.403 298.269 394.829 298.701C395.255 299.132 395.935 299.305 396.87 299.217C398.144 299.098 399.122 298.557 399.804 297.594C400.481 296.588 401.113 295.093 401.699 293.11L404.375 292.86C403.24 297.68 401.707 300.994 399.776 302.803C397.883 304.565 395.832 305.549 393.623 305.755ZM409.101 304.311C407.061 304.501 405.345 304.018 403.952 302.863C402.601 301.703 401.806 299.849 401.568 297.3C401.469 296.238 401.51 294.842 401.691 293.111L404.115 272.251L413.291 271.395L410.726 293.489C410.646 294.01 410.632 294.547 410.683 295.1C410.858 296.969 411.582 297.844 412.857 297.725C414.046 297.614 415.02 297.03 415.779 295.974C416.533 294.875 417.084 293.431 417.431 291.641L419.855 270.782L429.031 269.925L426.465 292.019C426.352 293.101 426.317 293.876 426.361 294.343C426.492 295.745 427.279 296.378 428.724 296.244C430.678 296.061 432.368 294.661 433.795 292.042C435.264 289.419 436.35 286.361 437.052 282.868C437.755 279.374 437.991 276.395 437.761 273.931C437.696 274.151 437.435 274.347 436.98 274.518C436.521 274.647 436.121 274.727 435.781 274.759C435.059 274.826 434.454 274.54 433.965 273.9C433.52 273.256 433.259 272.53 433.184 271.723C433.089 270.703 433.33 269.845 433.908 269.148C434.528 268.448 435.496 268.036 436.813 267.913C438.215 267.782 439.284 268.218 440.021 269.221C440.753 270.181 441.195 271.468 441.345 273.082C441.702 276.905 441.427 281.066 440.518 285.565C439.606 290.021 437.933 293.905 435.5 297.218C433.066 300.53 429.832 302.375 425.796 302.752C423.714 302.946 421.973 302.659 420.573 301.89C419.173 301.12 418.198 299.862 417.65 298.113C415.604 301.904 412.754 303.969 409.101 304.311ZM452.568 300.253C450.147 300.479 448.051 299.839 446.282 298.333C444.513 296.826 443.464 294.31 443.135 290.784C442.842 287.641 443.15 284.291 444.061 280.735C445.01 277.132 446.606 274.027 448.848 271.418C451.128 268.762 453.989 267.274 457.43 266.952C459.172 266.79 460.495 266.966 461.4 267.482C462.305 267.997 462.804 268.743 462.895 269.72L462.936 270.167L463.322 266.724L472.498 265.867L469.933 287.961C469.822 288.614 469.801 289.302 469.868 290.024C470.039 291.851 470.995 292.683 472.737 292.52C473.926 292.409 474.894 291.762 475.641 290.578C476.43 289.39 476.996 287.88 477.339 286.049L480.015 285.799C478.872 290.533 477.209 293.838 475.027 295.713C472.884 297.542 470.644 298.565 468.308 298.783C466.523 298.95 465.033 298.596 463.838 297.722C462.68 296.802 461.906 295.396 461.516 293.504C460.446 295.36 459.198 296.912 457.772 298.16C456.384 299.361 454.65 300.058 452.568 300.253ZM456.133 293.685C457.195 293.586 458.19 293 459.119 291.928C460.086 290.809 460.679 289.361 460.899 287.583L462.613 272.896C462.561 272.344 462.299 271.833 461.827 271.363C461.35 270.85 460.666 270.636 459.774 270.719C458.075 270.878 456.639 272.019 455.466 274.142C454.289 276.223 453.449 278.701 452.946 281.577C452.439 284.409 452.285 286.888 452.483 289.012C452.681 291.136 453.105 292.468 453.756 293.007C454.448 293.542 455.241 293.768 456.133 293.685ZM501.467 295.688C498.876 295.929 496.9 295.428 495.542 294.184C494.221 292.893 493.466 291.228 493.275 289.189C493.192 288.297 493.205 287.288 493.314 286.164C493.42 284.997 493.529 283.873 493.642 282.791C493.798 281.705 493.905 281.01 493.962 280.704C494.163 279.186 494.345 277.69 494.507 276.218C494.67 274.746 494.709 273.564 494.626 272.672C494.424 270.505 493.558 269.493 492.029 269.636C490.924 269.739 489.999 270.383 489.252 271.566C488.501 272.708 487.953 274.173 487.605 275.963L485.182 296.822L476.006 297.679L479.786 265.187L488.962 264.33L488.57 267.709C490.472 265.132 492.847 263.71 495.693 263.445C497.859 263.242 499.636 263.676 501.021 264.747C502.407 265.818 503.212 267.564 503.438 269.985C503.553 271.217 503.534 272.611 503.379 274.169C503.22 275.683 502.966 277.55 502.616 279.768C502.399 281.116 502.202 282.442 502.023 283.744C501.883 285 501.847 285.989 501.915 286.711C501.994 287.561 502.246 288.201 502.672 288.633C503.098 289.065 503.779 289.237 504.713 289.149C505.988 289.03 506.966 288.489 507.647 287.526C508.324 286.52 508.956 285.025 509.543 283.042L512.219 282.792C511.083 287.612 509.55 290.926 507.619 292.735C505.727 294.497 503.676 295.481 501.467 295.688ZM517.946 258.153C516.544 258.284 515.309 257.907 514.241 257.021C513.172 256.135 512.573 254.991 512.442 253.589C512.311 252.187 512.688 250.952 513.574 249.884C514.456 248.773 515.598 248.152 517 248.021C518.402 247.89 519.639 248.289 520.711 249.218C521.822 250.099 522.443 251.241 522.574 252.643C522.705 254.045 522.306 255.282 521.378 256.354C520.492 257.423 519.348 258.022 517.946 258.153ZM516.944 294.243C514.905 294.433 513.189 293.95 511.795 292.795C510.444 291.635 509.65 289.781 509.412 287.232C509.313 286.17 509.354 284.774 509.535 283.043L511.959 262.183L521.135 261.327L518.569 283.421C518.459 284.074 518.437 284.761 518.505 285.484C518.584 286.333 518.833 286.931 519.251 287.278C519.707 287.578 520.403 287.685 521.338 287.597C522.102 287.526 522.77 287.335 523.341 287.025C523.369 289.165 522.757 290.872 521.505 292.146C520.291 293.373 518.771 294.072 516.944 294.243Z" fill="#E9006F"/>
<rect x="165.448" y="162.26" width="386.187" height="218.962" rx="19.8754" transform="rotate(-5.39028 165.448 162.26)" stroke="#5968C2" stroke-width="0.750015"/>
<path d="M220.245 352.424C233.005 345.795 246.218 343.03 257.256 343.902C268.301 344.775 277.108 349.279 281.182 357.12C285.256 364.961 283.878 374.756 278.243 384.295C272.611 393.829 262.753 403.051 249.994 409.68C237.234 416.31 224.021 419.074 212.983 418.202C201.938 417.329 193.13 412.826 189.056 404.985C184.983 397.144 186.361 387.348 191.996 377.809C197.628 368.275 207.486 359.053 220.245 352.424Z" fill="#EEF2FF" stroke="#5968C2" stroke-width="0.750015"/>
<path d="M198.425 386.527L203.744 397.573C203.999 398.102 204.319 398.384 204.707 398.419C205.094 398.455 205.551 398.345 206.08 398.091L206.262 398.469C205.98 398.59 205.587 398.757 205.083 398.97C204.585 399.196 204.053 399.444 203.489 399.716C203.092 399.907 202.705 400.101 202.326 400.298C201.953 400.507 201.667 400.667 201.469 400.777L201.287 400.399C201.707 400.196 201.961 399.971 202.048 399.721C202.153 399.479 202.099 399.135 201.885 398.69L197.52 389.627C197.26 389.086 196.979 388.733 196.677 388.567C196.369 388.39 195.963 388.423 195.459 388.666L195.277 388.287C195.678 388.138 196.06 387.977 196.42 387.803C196.816 387.612 197.186 387.412 197.529 387.202C197.866 386.981 198.165 386.756 198.425 386.527ZM201.264 385.093C201.888 384.792 202.531 384.698 203.191 384.809C203.858 384.902 204.494 385.21 205.101 385.732C205.707 386.254 206.248 387.007 206.722 387.992C207.069 388.713 207.315 389.438 207.459 390.168C207.597 390.885 207.611 391.574 207.5 392.235C207.395 392.877 207.154 393.467 206.776 394.004C206.392 394.529 205.846 394.962 205.137 395.304C204.609 395.558 204.085 395.67 203.567 395.638C203.061 395.601 202.64 395.448 202.304 395.181L202.362 394.842C202.663 395.067 202.998 395.209 203.367 395.268C203.748 395.322 204.148 395.247 204.569 395.045C205.193 394.744 205.585 394.311 205.742 393.747C205.906 393.165 205.895 392.497 205.709 391.743C205.518 390.977 205.211 390.155 204.789 389.278C204.314 388.293 203.86 387.535 203.427 387.004C202.988 386.461 202.558 386.12 202.136 385.983C201.709 385.833 201.291 385.857 200.883 386.054C200.342 386.314 199.954 386.767 199.718 387.414C199.493 388.055 199.541 388.831 199.862 389.742L199.499 389.45C199.222 388.474 199.247 387.604 199.574 386.839C199.908 386.057 200.471 385.475 201.264 385.093ZM211.641 380.096C211.99 379.928 212.319 379.858 212.629 379.887C212.95 379.909 213.226 380.006 213.456 380.176C213.692 380.329 213.877 380.543 214.01 380.82C214.178 381.168 214.214 381.521 214.12 381.877C214.031 382.216 213.813 382.469 213.464 382.636C213.164 382.781 212.862 382.815 212.559 382.739C212.268 382.657 212.048 382.46 211.897 382.148C211.77 381.884 211.729 381.63 211.774 381.386C211.826 381.124 211.916 380.896 212.044 380.701C211.878 380.663 211.713 380.69 211.551 380.783C211.232 380.951 210.984 381.204 210.806 381.541C210.622 381.867 210.509 382.232 210.468 382.637C210.42 383.03 210.426 383.426 210.486 383.827C210.545 384.227 210.648 384.577 210.792 384.878L212.788 389.022C213.071 389.611 213.425 389.929 213.847 389.977C214.264 390.013 214.761 389.892 215.338 389.615L215.52 389.993C215.238 390.114 214.835 390.293 214.313 390.53C213.797 390.749 213.257 390.994 212.692 391.266C212.26 391.474 211.833 391.695 211.412 391.927C210.985 392.147 210.661 392.318 210.438 392.44L210.256 392.062C210.725 391.836 211.012 391.587 211.117 391.314C211.234 391.036 211.172 390.644 210.929 390.14L208.204 384.482C207.944 383.941 207.663 383.588 207.361 383.422C207.053 383.245 206.647 383.278 206.143 383.521L205.961 383.142C206.362 382.993 206.744 382.832 207.104 382.658C207.512 382.462 207.882 382.261 208.213 382.057C208.55 381.836 208.849 381.611 209.109 381.382L210.107 383.454C210.083 383.036 210.113 382.608 210.197 382.167C210.281 381.727 210.442 381.324 210.68 380.958C210.913 380.58 211.233 380.292 211.641 380.096ZM218.175 376.95C218.98 376.562 219.775 376.386 220.562 376.421C221.349 376.457 222.102 376.746 222.821 377.287C223.541 377.828 224.181 378.682 224.742 379.847C225.303 381.012 225.571 382.045 225.546 382.945C225.515 383.833 225.268 384.596 224.805 385.233C224.337 385.858 223.7 386.365 222.895 386.752C222.102 387.134 221.31 387.316 220.517 387.298C219.718 387.268 218.962 386.989 218.248 386.459C217.541 385.912 216.906 385.056 216.345 383.891C215.784 382.725 215.51 381.696 215.523 380.801C215.549 379.901 215.799 379.13 216.273 378.487C216.748 377.844 217.382 377.331 218.175 376.95ZM218.348 377.31C217.724 377.611 217.387 378.217 217.337 379.129C217.282 380.028 217.642 381.283 218.417 382.893C219.193 384.503 219.949 385.566 220.687 386.084C221.419 386.59 222.097 386.693 222.722 386.392C223.334 386.097 223.671 385.505 223.732 384.618C223.799 383.712 223.445 382.455 222.67 380.845C221.895 379.235 221.132 378.174 220.383 377.662C219.639 377.132 218.961 377.015 218.348 377.31ZM229.877 365.676L235.734 377.839C235.994 378.38 236.278 378.739 236.586 378.916C236.899 379.076 237.302 379.037 237.795 378.8L237.977 379.179C237.587 379.322 237.206 379.483 236.834 379.663C236.425 379.859 236.05 380.062 235.707 380.272C235.376 380.476 235.083 380.698 234.829 380.939L228.972 368.776C228.711 368.235 228.424 367.885 228.111 367.725C227.803 367.548 227.403 367.577 226.911 367.815L226.728 367.436C227.13 367.287 227.511 367.126 227.872 366.952C228.268 366.761 228.638 366.561 228.981 366.352C229.318 366.13 229.617 365.905 229.877 365.676ZM228.026 372.205C228.555 371.951 229.09 371.834 229.633 371.854C230.187 371.868 230.685 372.102 231.125 372.556L231.004 372.858C230.628 372.507 230.231 372.313 229.814 372.277C229.392 372.229 228.976 372.303 228.568 372.5C227.883 372.83 227.501 373.465 227.421 374.406C227.336 375.335 227.663 376.553 228.404 378.061C228.885 379.058 229.362 379.835 229.837 380.39C230.306 380.934 230.775 381.278 231.244 381.422C231.725 381.561 232.199 381.517 232.668 381.291C233.136 381.066 233.461 380.665 233.643 380.089C233.836 379.508 233.79 378.827 233.503 378.048L233.848 378.348C234.121 379.223 234.136 379.992 233.894 380.656C233.646 381.309 233.137 381.82 232.368 382.19C231.636 382.543 230.903 382.681 230.171 382.605C229.444 382.511 228.758 382.175 228.11 381.599C227.457 381.011 226.864 380.164 226.332 379.059C225.806 377.966 225.549 376.972 225.562 376.078C225.582 375.166 225.811 374.382 226.25 373.727C226.689 373.071 227.281 372.564 228.026 372.205ZM242.701 365.205L246.336 372.756C246.597 373.296 246.881 373.655 247.188 373.833C247.502 373.992 247.905 373.954 248.397 373.717L248.58 374.095C248.19 374.238 247.809 374.4 247.436 374.579C247.04 374.77 246.67 374.97 246.327 375.18C245.984 375.389 245.686 375.614 245.432 375.855L244.486 373.891C244.533 374.756 244.361 375.475 243.971 376.048C243.587 376.603 243.1 377.022 242.512 377.306C242.067 377.52 241.657 377.636 241.281 377.654C240.911 377.684 240.575 377.647 240.272 377.541C239.94 377.405 239.642 377.171 239.379 376.839C239.11 376.495 238.836 376.034 238.559 375.458L236.372 370.917C236.112 370.376 235.831 370.023 235.529 369.858C235.221 369.68 234.815 369.713 234.311 369.956L234.129 369.578C234.53 369.428 234.911 369.267 235.272 369.094C235.668 368.903 236.038 368.702 236.381 368.493C236.718 368.271 237.017 368.046 237.277 367.817L240.748 375.025C240.915 375.374 241.093 375.68 241.28 375.946C241.467 376.211 241.691 376.384 241.952 376.465C242.213 376.547 242.542 376.492 242.938 376.301C243.359 376.099 243.67 375.793 243.873 375.385C244.088 374.97 244.187 374.501 244.171 373.976C244.155 373.451 244.017 372.918 243.757 372.377L241.796 368.305C241.535 367.764 241.254 367.411 240.953 367.246C240.645 367.068 240.239 367.101 239.735 367.344L239.552 366.966C239.954 366.817 240.335 366.655 240.696 366.482C241.092 366.291 241.462 366.091 241.805 365.881C242.142 365.659 242.441 365.434 242.701 365.205ZM249.411 361.907C249.82 361.711 250.236 361.577 250.661 361.505C251.079 361.422 251.47 361.404 251.833 361.451C252.208 361.493 252.529 361.605 252.794 361.788C253.072 361.965 253.283 362.203 253.428 362.504C253.601 362.864 253.635 363.195 253.529 363.498C253.424 363.801 253.208 364.03 252.884 364.186C252.56 364.342 252.246 364.382 251.943 364.306C251.64 364.23 251.408 364.024 251.246 363.688C251.095 363.375 251.064 363.08 251.151 362.801C251.233 362.51 251.38 362.276 251.591 362.101C251.396 361.972 251.132 361.915 250.798 361.928C250.47 361.923 250.15 361.996 249.837 362.146C249.513 362.302 249.241 362.537 249.022 362.85C248.814 363.157 248.68 363.539 248.62 363.998C248.56 364.456 248.59 364.996 248.712 365.618C248.846 366.234 249.101 366.933 249.477 367.714C249.963 368.723 250.465 369.473 250.982 369.963C251.506 370.436 252.021 370.706 252.527 370.774C253.033 370.841 253.508 370.767 253.952 370.553C254.241 370.414 254.509 370.219 254.757 369.966C255.017 369.707 255.225 369.385 255.38 369C255.547 368.609 255.634 368.145 255.642 367.608L256.045 367.57C256.104 368.03 256.087 368.533 255.996 369.081C255.916 369.622 255.712 370.135 255.383 370.619C255.053 371.103 254.558 371.504 253.898 371.823C253.141 372.187 252.366 372.331 251.574 372.253C250.782 372.176 250.036 371.87 249.334 371.334C248.626 370.787 248.024 369.997 247.526 368.964C247.04 367.955 246.798 366.991 246.8 366.073C246.808 365.137 247.038 364.308 247.49 363.587C247.942 362.866 248.582 362.306 249.411 361.907ZM255.494 355.626L256.934 358.617L259.421 357.42L259.594 357.78L257.108 358.978L260.518 366.06C260.755 366.552 261.013 366.857 261.292 366.974C261.57 367.092 261.878 367.07 262.214 366.908C262.526 366.757 262.742 366.498 262.861 366.13C262.991 365.756 263.002 365.226 262.893 364.538L263.296 364.5C263.459 365.206 263.461 365.871 263.302 366.494C263.15 367.101 262.72 367.574 262.011 367.915C261.603 368.112 261.234 368.223 260.906 368.248C260.583 368.285 260.274 368.256 259.977 368.163C259.58 368.014 259.24 367.77 258.959 367.432C258.678 367.094 258.384 366.606 258.077 365.97L255.162 359.915L253.504 360.713L253.33 360.353L254.988 359.555L253.721 356.924C254.088 356.732 254.422 356.535 254.723 356.33C255.018 356.114 255.275 355.879 255.494 355.626ZM208.868 394.661L214.726 406.825C214.986 407.365 215.27 407.724 215.577 407.902C215.891 408.061 216.294 408.023 216.787 407.785L216.969 408.164C216.579 408.307 216.198 408.468 215.826 408.648C215.417 408.845 215.041 409.048 214.698 409.257C214.367 409.461 214.075 409.683 213.821 409.924L207.963 397.761C207.703 397.22 207.416 396.87 207.102 396.71C206.795 396.533 206.395 396.563 205.902 396.8L205.72 396.422C206.122 396.272 206.503 396.111 206.863 395.938C207.26 395.747 207.63 395.546 207.973 395.337C208.31 395.115 208.608 394.89 208.868 394.661ZM207.018 401.191C207.546 400.936 208.082 400.819 208.624 400.839C209.179 400.853 209.676 401.087 210.117 401.541L209.996 401.843C209.619 401.492 209.223 401.298 208.806 401.262C208.383 401.214 207.968 401.288 207.559 401.485C206.874 401.815 206.492 402.45 206.413 403.391C206.327 404.32 206.655 405.539 207.396 407.047C207.876 408.044 208.354 408.82 208.828 409.376C209.297 409.919 209.766 410.263 210.235 410.407C210.716 410.546 211.191 410.502 211.66 410.277C212.128 410.051 212.453 409.65 212.635 409.074C212.828 408.493 212.782 407.812 212.495 407.033L212.839 407.333C213.113 408.208 213.128 408.977 212.886 409.642C212.637 410.294 212.129 410.805 211.36 411.176C210.627 411.528 209.895 411.667 209.162 411.59C208.436 411.496 207.749 411.161 207.102 410.585C206.449 409.996 205.856 409.15 205.324 408.044C204.797 406.951 204.541 405.958 204.554 405.063C204.574 404.151 204.803 403.367 205.242 402.712C205.681 402.056 206.273 401.549 207.018 401.191ZM217.684 396.054C218.741 395.545 219.723 395.465 220.63 395.812C221.538 396.159 222.324 397.024 222.989 398.405L216.773 401.399L216.572 401.074L220.914 398.983C220.643 398.388 220.335 397.871 219.989 397.43C219.638 396.978 219.276 396.657 218.903 396.466C218.53 396.276 218.158 396.27 217.785 396.45C217.269 396.698 216.951 397.192 216.833 397.929C216.721 398.649 216.912 399.63 217.407 400.872L217.504 400.936C217.573 401.11 217.651 401.302 217.737 401.512C217.818 401.71 217.904 401.905 217.997 402.097C218.396 402.926 218.857 403.562 219.382 404.005C219.906 404.448 220.442 404.716 220.989 404.807C221.53 404.887 222.011 404.825 222.432 404.623C222.756 404.467 223.045 404.268 223.299 404.028C223.56 403.769 223.77 403.453 223.931 403.08C224.085 402.695 224.167 402.234 224.175 401.697L224.605 401.668C224.657 402.145 224.629 402.655 224.519 403.196C224.41 403.737 224.182 404.246 223.835 404.724C223.482 405.19 222.993 405.574 222.368 405.874C221.527 406.279 220.705 406.446 219.901 406.374C219.091 406.291 218.347 405.976 217.67 405.429C216.992 404.882 216.419 404.122 215.95 403.149C215.436 402.08 215.17 401.083 215.154 400.158C215.138 399.234 215.347 398.423 215.781 397.726C216.221 397.011 216.855 396.454 217.684 396.054ZM225.664 392.211C226.145 391.98 226.597 391.858 227.021 391.847C227.45 391.817 227.772 391.825 227.986 391.87C228.533 391.992 228.681 391.669 228.43 390.902L228.826 390.711C228.964 391.059 229.143 391.476 229.362 391.962C229.576 392.436 229.871 393.064 230.247 393.845L229.851 394.036C229.564 393.626 229.23 393.254 228.847 392.921C228.477 392.581 228.057 392.354 227.587 392.24C227.13 392.12 226.637 392.187 226.108 392.442C225.712 392.632 225.436 392.906 225.282 393.261C225.122 393.605 225.146 393.993 225.354 394.425C225.528 394.786 225.786 395.046 226.13 395.206C226.473 395.366 226.868 395.479 227.314 395.546C227.773 395.606 228.264 395.673 228.787 395.746C229.377 395.833 229.918 395.942 230.411 396.075C230.91 396.189 231.348 396.378 231.726 396.64C232.116 396.896 232.426 397.265 232.658 397.745C232.924 398.298 232.999 398.838 232.884 399.367C232.781 399.891 232.538 400.37 232.156 400.806C231.768 401.229 231.286 401.58 230.709 401.858C230.421 401.997 230.136 402.097 229.855 402.158C229.58 402.232 229.314 402.278 229.057 402.298C228.89 402.29 228.723 402.281 228.556 402.273C228.396 402.247 228.238 402.227 228.083 402.212C227.922 402.186 227.82 402.25 227.776 402.405C227.732 402.559 227.753 402.786 227.838 403.085L227.441 403.276C227.28 402.88 227.072 402.403 226.818 401.845C226.564 401.286 226.217 400.551 225.778 399.638L226.174 399.447C226.576 400.067 226.983 400.589 227.394 401.012C227.805 401.436 228.243 401.714 228.706 401.846C229.175 401.96 229.698 401.878 230.275 401.601C230.503 401.491 230.708 401.333 230.89 401.127C231.066 400.909 231.172 400.651 231.206 400.353C231.252 400.05 231.183 399.706 230.997 399.322C230.743 398.793 230.348 398.45 229.814 398.293C229.286 398.118 228.641 397.978 227.879 397.871C227.332 397.779 226.806 397.685 226.3 397.588C225.801 397.473 225.353 397.297 224.957 397.058C224.555 396.808 224.236 396.436 223.999 395.944C223.738 395.403 223.651 394.898 223.735 394.428C223.832 393.952 224.056 393.526 224.407 393.15C224.753 392.761 225.172 392.449 225.664 392.211ZM230.557 384.572C230.93 384.393 231.3 384.362 231.668 384.481C232.03 384.588 232.295 384.815 232.463 385.164C232.631 385.512 232.646 385.867 232.51 386.229C232.367 386.579 232.11 386.843 231.737 387.023C231.365 387.202 230.998 387.238 230.636 387.131C230.268 387.013 230 386.779 229.832 386.431C229.664 386.082 229.652 385.733 229.794 385.384C229.93 385.022 230.185 384.751 230.557 384.572ZM233.73 388.394L237.496 396.214C237.739 396.719 238 397.015 238.279 397.103C238.57 397.185 238.949 397.113 239.418 396.887L239.6 397.265C239.39 397.352 239.066 397.493 238.628 397.689C238.196 397.868 237.758 398.064 237.313 398.278C236.893 398.48 236.466 398.701 236.033 398.939C235.594 399.165 235.27 399.336 235.059 399.452L234.877 399.074C235.346 398.848 235.633 398.599 235.738 398.326C235.855 398.048 235.793 397.656 235.55 397.152L232.825 391.493C232.565 390.953 232.284 390.6 231.982 390.434C231.675 390.257 231.269 390.29 230.764 390.533L230.582 390.154C230.984 390.005 231.365 389.844 231.725 389.67C232.133 389.473 232.503 389.273 232.834 389.069C233.171 388.848 233.47 388.623 233.73 388.394ZM245.481 398.607C244.808 398.931 244.151 399.166 243.511 399.311C242.883 399.451 242.328 399.466 241.847 399.358C241.383 399.256 241.05 398.994 240.848 398.574C240.657 398.177 240.657 397.748 240.849 397.286C241.041 396.823 241.405 396.367 241.943 395.915L242.208 396.143C242.007 396.373 241.893 396.642 241.865 396.952C241.848 397.256 241.909 397.552 242.048 397.84C242.303 398.369 242.746 398.659 243.377 398.71C244.008 398.761 244.726 398.593 245.531 398.205C246.072 397.945 246.548 397.627 246.959 397.251C247.388 396.882 247.677 396.469 247.827 396.012C247.989 395.549 247.951 395.071 247.714 394.579C247.529 394.195 247.235 393.937 246.831 393.805C246.433 393.686 245.826 393.823 245.009 394.217L243.748 394.824C243.327 395.027 242.92 395.179 242.525 395.28C242.129 395.382 241.769 395.385 241.442 395.291C241.122 395.179 240.869 394.93 240.684 394.546C240.475 394.114 240.459 393.618 240.634 393.06C240.81 392.502 241.234 391.832 241.908 391.049L242.202 391.107C241.946 391.467 241.729 391.815 241.551 392.153C241.379 392.472 241.363 392.776 241.502 393.064C241.687 393.449 242.056 393.508 242.608 393.242L244.753 392.209C245.317 391.937 245.866 391.769 246.397 391.706C246.923 391.63 247.402 391.688 247.835 391.879C248.267 392.071 248.611 392.43 248.865 392.959C249.137 393.524 249.206 394.142 249.07 394.814C248.953 395.492 248.6 396.158 248.012 396.811C247.43 397.476 246.586 398.075 245.481 398.607ZM242.109 391.329C241.496 391.624 240.892 391.797 240.294 391.848C239.692 391.886 239.145 391.765 238.654 391.483C238.163 391.202 237.759 390.731 237.441 390.07C237.122 389.409 237.006 388.799 237.092 388.24C237.172 387.669 237.418 387.165 237.83 386.73C238.236 386.283 238.746 385.912 239.358 385.617C239.995 385.31 240.609 385.14 241.2 385.107C241.785 385.063 242.326 385.187 242.822 385.48C243.313 385.762 243.717 386.233 244.036 386.894C244.354 387.555 244.47 388.165 244.384 388.724C244.298 389.283 244.058 389.784 243.664 390.225C243.264 390.654 242.746 391.022 242.109 391.329ZM241.953 391.005C242.373 390.802 242.611 390.466 242.666 389.995C242.72 389.525 242.516 388.81 242.053 387.848C241.591 386.887 241.158 386.282 240.757 386.031C240.349 385.769 239.935 385.739 239.515 385.941C239.118 386.132 238.889 386.472 238.829 386.96C238.762 387.436 238.96 388.154 239.423 389.115C239.885 390.076 240.324 390.679 240.738 390.924C241.151 391.169 241.556 391.196 241.953 391.005ZM242.754 385.846L242.369 385.876C242.335 385.375 242.447 384.87 242.705 384.361C242.963 383.852 243.314 383.49 243.758 383.276C244.095 383.114 244.405 383.083 244.69 383.182C244.981 383.264 245.208 383.473 245.37 383.81C245.549 384.182 245.574 384.496 245.445 384.75C245.328 384.999 245.161 385.175 244.945 385.279C244.753 385.372 244.541 385.393 244.309 385.342C244.089 385.285 243.901 385.124 243.744 384.859C243.581 384.582 243.495 384.173 243.485 383.63L243.718 383.606C243.33 384.03 243.074 384.405 242.95 384.731C242.832 385.039 242.767 385.411 242.754 385.846ZM251.794 379.628C252.275 379.397 252.697 379.275 253.061 379.262C253.431 379.232 253.77 379.276 254.079 379.394C254.405 379.518 254.697 379.74 254.954 380.06C255.224 380.374 255.506 380.837 255.801 381.45L258.127 386.279C258.37 386.784 258.631 387.08 258.91 387.167C259.201 387.249 259.581 387.177 260.049 386.952L260.231 387.33C260.021 387.417 259.697 387.558 259.259 387.754C258.815 387.938 258.383 388.132 257.962 388.334C257.554 388.531 257.151 388.74 256.754 388.96C256.364 389.163 256.069 389.32 255.871 389.43L255.688 389.052C256.097 388.855 256.342 388.626 256.423 388.365C256.505 388.104 256.424 387.721 256.181 387.216L253.612 381.883C253.445 381.534 253.264 381.236 253.071 380.989C252.872 380.73 252.636 380.562 252.363 380.486C252.084 380.399 251.752 380.448 251.368 380.633C250.923 380.847 250.588 381.164 250.361 381.584C250.146 381.998 250.043 382.477 250.053 383.019C250.069 383.544 250.207 384.077 250.468 384.618L252.559 388.961C252.802 389.465 253.051 389.767 253.306 389.866C253.573 389.96 253.905 389.911 254.301 389.72L254.483 390.098C254.285 390.179 253.985 390.309 253.583 390.488C253.187 390.649 252.779 390.83 252.358 391.033C251.95 391.23 251.529 391.447 251.096 391.685C250.657 391.911 250.333 392.082 250.122 392.198L249.94 391.82C250.409 391.594 250.696 391.345 250.801 391.072C250.919 390.794 250.856 390.402 250.613 389.898L247.888 384.24C247.628 383.699 247.347 383.346 247.045 383.18C246.738 383.003 246.332 383.036 245.827 383.279L245.645 382.9C246.047 382.751 246.428 382.59 246.788 382.416C247.197 382.22 247.566 382.019 247.897 381.816C248.235 381.594 248.533 381.369 248.793 381.14L249.739 383.104C249.692 382.209 249.867 381.481 250.263 380.92C250.671 380.354 251.182 379.923 251.794 379.628ZM260.85 375.267C261.907 374.758 262.889 374.678 263.796 375.025C264.704 375.372 265.49 376.237 266.155 377.618L259.938 380.612L259.737 380.287L264.08 378.196C263.809 377.601 263.5 377.084 263.155 376.643C262.804 376.191 262.442 375.87 262.069 375.679C261.696 375.489 261.324 375.483 260.951 375.663C260.435 375.911 260.117 376.405 259.999 377.142C259.887 377.862 260.078 378.843 260.572 380.085L260.67 380.149C260.739 380.323 260.816 380.515 260.903 380.725C260.983 380.923 261.07 381.118 261.162 381.31C261.562 382.139 262.023 382.775 262.547 383.218C263.072 383.661 263.607 383.929 264.155 384.02C264.696 384.1 265.177 384.038 265.597 383.836C265.922 383.68 266.211 383.481 266.465 383.241C266.725 382.982 266.936 382.666 267.096 382.293C267.251 381.908 267.333 381.447 267.341 380.91L267.77 380.881C267.823 381.358 267.794 381.868 267.685 382.409C267.576 382.95 267.347 383.459 267 383.937C266.648 384.403 266.159 384.787 265.534 385.087C264.693 385.492 263.871 385.659 263.067 385.587C262.257 385.504 261.513 385.189 260.836 384.642C260.158 384.095 259.585 383.335 259.116 382.362C258.601 381.293 258.336 380.296 258.32 379.372C258.304 378.447 258.513 377.636 258.946 376.939C259.386 376.224 260.021 375.667 260.85 375.267ZM271.246 370.261C271.594 370.093 271.923 370.024 272.233 370.052C272.554 370.075 272.83 370.171 273.06 370.342C273.297 370.494 273.481 370.709 273.614 370.985C273.782 371.334 273.819 371.686 273.724 372.042C273.635 372.381 273.417 372.634 273.068 372.802C272.768 372.946 272.466 372.981 272.163 372.905C271.872 372.823 271.652 372.626 271.501 372.313C271.374 372.049 271.333 371.795 271.379 371.551C271.43 371.29 271.52 371.061 271.648 370.866C271.482 370.828 271.317 370.856 271.155 370.949C270.836 371.117 270.588 371.37 270.41 371.707C270.226 372.032 270.114 372.397 270.072 372.802C270.024 373.195 270.03 373.592 270.09 373.992C270.15 374.392 270.252 374.743 270.396 375.043L272.392 379.188C272.676 379.776 273.029 380.095 273.451 380.143C273.868 380.179 274.365 380.058 274.942 379.78L275.124 380.159C274.842 380.28 274.44 380.458 273.917 380.695C273.401 380.914 272.861 381.16 272.296 381.431C271.864 381.64 271.437 381.86 271.016 382.092C270.589 382.313 270.265 382.484 270.042 382.606L269.86 382.227C270.329 382.002 270.616 381.752 270.721 381.48C270.839 381.201 270.776 380.81 270.533 380.305L267.808 374.647C267.548 374.106 267.267 373.753 266.965 373.588C266.658 373.41 266.252 373.443 265.747 373.686L265.565 373.308C265.967 373.158 266.348 372.997 266.708 372.824C267.117 372.627 267.486 372.427 267.817 372.223C268.155 372.001 268.453 371.776 268.713 371.547L269.711 373.62C269.687 373.202 269.717 372.773 269.801 372.333C269.886 371.893 270.047 371.49 270.285 371.123C270.517 370.745 270.837 370.458 271.246 370.261Z" fill="#E9006F"/>
</g>
<defs>
<filter id="filter0_d_314_4877" x="-9.00018" y="0" width="764.219" height="553.215" filterUnits="userSpaceOnUse" color-interpolation-filters="sRGB">
<feFlood flood-opacity="0" result="BackgroundImageFix"/>
<feColorMatrix in="SourceAlpha" type="matrix" values="0 0 0 0 0 0 0 0 0 0 0 0 0 0 0 0 0 0 127 0" result="hardAlpha"/>
<feOffset dy="9.00018"/>
<feGaussianBlur stdDeviation="4.50009"/>
<feComposite in2="hardAlpha" operator="out"/>
<feColorMatrix type="matrix" values="0 0 0 0 0.371686 0 0 0 0 0.42868 0 0 0 0 0.770639 0 0 0 0.44 0"/>
<feBlend mode="normal" in2="BackgroundImageFix" result="effect1_dropShadow_314_4877"/>
<feBlend mode="normal" in="SourceGraphic" in2="effect1_dropShadow_314_4877" result="shape"/>
</filter>
</defs>
</svg>
