<svg width="1440" height="512" viewBox="0 0 1440 512" fill="none" xmlns="http://www.w3.org/2000/svg">

  <!-- White base fill for bottom -->
  <rect x="0" y="340" width="1440" height="172" fill="white"/>

  <!-- ── Shadow / depth layer (behind) ── -->
  <!-- Cloud group 1 -->
  <ellipse cx="108" cy="338" rx="108" ry="72" fill="#bccaff"/>
  <ellipse cx="190" cy="310" rx="88" ry="68" fill="#bccaff"/>
  <ellipse cx="55"  cy="352" rx="72" ry="56" fill="#bccaff"/>
  <ellipse cx="265" cy="328" rx="70" ry="58" fill="#bccaff"/>

  <!-- Cloud group 2 -->
  <ellipse cx="440" cy="330" rx="112" ry="74" fill="#bccaff"/>
  <ellipse cx="530" cy="300" rx="92" ry="70" fill="#bccaff"/>
  <ellipse cx="380" cy="348" rx="76" ry="58" fill="#bccaff"/>
  <ellipse cx="610" cy="322" rx="72" ry="58" fill="#bccaff"/>

  <!-- Cloud group 3 -->
  <ellipse cx="770" cy="326" rx="110" ry="72" fill="#bccaff"/>
  <ellipse cx="860" cy="298" rx="90" ry="68" fill="#bccaff"/>
  <ellipse cx="714" cy="346" rx="74" ry="56" fill="#bccaff"/>
  <ellipse cx="940" cy="320" rx="70" ry="56" fill="#bccaff"/>

  <!-- Cloud group 4 -->
  <ellipse cx="1090" cy="332" rx="112" ry="74" fill="#bccaff"/>
  <ellipse cx="1178" cy="302" rx="90" ry="68" fill="#bccaff"/>
  <ellipse cx="1034" cy="350" rx="76" ry="58" fill="#bccaff"/>
  <ellipse cx="1258" cy="322" rx="72" ry="56" fill="#bccaff"/>

  <!-- Cloud group 5 -->
  <ellipse cx="1340" cy="328" rx="108" ry="72" fill="#bccaff"/>
  <ellipse cx="1420" cy="300" rx="86" ry="66" fill="#bccaff"/>
  <ellipse cx="1284" cy="348" rx="74" ry="56" fill="#bccaff"/>

  <!-- ── Mid tone layer ── -->
  <!-- Cloud group 1 -->
  <ellipse cx="106" cy="332" rx="104" ry="68" fill="#c8d2ff"/>
  <ellipse cx="188" cy="304" rx="84" ry="64" fill="#c8d2ff"/>
  <ellipse cx="53"  cy="346" rx="68" ry="52" fill="#c8d2ff"/>

  <!-- Cloud group 2 -->
  <ellipse cx="438" cy="324" rx="108" ry="70" fill="#c8d2ff"/>
  <ellipse cx="528" cy="294" rx="88" ry="66" fill="#c8d2ff"/>
  <ellipse cx="378" cy="342" rx="72" ry="54" fill="#c8d2ff"/>

  <!-- Cloud group 3 -->
  <ellipse cx="768" cy="320" rx="106" ry="68" fill="#c8d2ff"/>
  <ellipse cx="858" cy="292" rx="86" ry="64" fill="#c8d2ff"/>
  <ellipse cx="712" cy="340" rx="70" ry="52" fill="#c8d2ff"/>

  <!-- Cloud group 4 -->
  <ellipse cx="1088" cy="326" rx="108" ry="70" fill="#c8d2ff"/>
  <ellipse cx="1176" cy="296" rx="86" ry="64" fill="#c8d2ff"/>
  <ellipse cx="1032" cy="344" rx="72" ry="54" fill="#c8d2ff"/>

  <!-- Cloud group 5 -->
  <ellipse cx="1338" cy="322" rx="104" ry="68" fill="#c8d2ff"/>
  <ellipse cx="1418" cy="294" rx="82" ry="62" fill="#c8d2ff"/>

  <!-- ── White highlight layer (front/top) ── -->
  <!-- Cloud group 1 -->
  <ellipse cx="104" cy="324" rx="100" ry="64" fill="white"/>
  <ellipse cx="186" cy="296" rx="80" ry="60" fill="white"/>
  <ellipse cx="51"  cy="340" rx="64" ry="48" fill="white"/>
  <ellipse cx="262" cy="320" rx="64" ry="50" fill="white"/>

  <!-- Cloud group 2 -->
  <ellipse cx="436" cy="316" rx="104" ry="66" fill="white"/>
  <ellipse cx="526" cy="286" rx="84" ry="62" fill="white"/>
  <ellipse cx="376" cy="336" rx="68" ry="50" fill="white"/>
  <ellipse cx="607" cy="312" rx="66" ry="50" fill="white"/>

  <!-- Cloud group 3 -->
  <ellipse cx="766" cy="312" rx="102" ry="64" fill="white"/>
  <ellipse cx="856" cy="284" rx="82" ry="60" fill="white"/>
  <ellipse cx="710" cy="332" rx="66" ry="48" fill="white"/>
  <ellipse cx="935" cy="308" rx="64" ry="48" fill="white"/>

  <!-- Cloud group 4 -->
  <ellipse cx="1086" cy="318" rx="104" ry="66" fill="white"/>
  <ellipse cx="1174" cy="288" rx="82" ry="60" fill="white"/>
  <ellipse cx="1030" cy="336" rx="68" ry="50" fill="white"/>
  <ellipse cx="1253" cy="312" rx="66" ry="50" fill="white"/>

  <!-- Cloud group 5 -->
  <ellipse cx="1336" cy="314" rx="100" ry="64" fill="white"/>
  <ellipse cx="1416" cy="286" rx="78" ry="58" fill="white"/>
  <ellipse cx="1282" cy="334" rx="66" ry="48" fill="white"/>

  <!-- ── Small accent puffs (back row, partially behind) ── -->
  <ellipse cx="310" cy="342" rx="58" ry="42" fill="#d4dbff"/>
  <ellipse cx="310" cy="338" rx="54" ry="38" fill="white"/>
  <ellipse cx="670" cy="340" rx="60" ry="44" fill="#d4dbff"/>
  <ellipse cx="670" cy="336" rx="56" ry="40" fill="white"/>
  <ellipse cx="1000" cy="338" rx="60" ry="42" fill="#d4dbff"/>
  <ellipse cx="1000" cy="334" rx="56" ry="38" fill="white"/>
  <ellipse cx="1310" cy="340" rx="58" ry="42" fill="#d4dbff"/>
  <ellipse cx="1310" cy="336" rx="54" ry="38" fill="white"/>

  <!-- Solid white ground fill so no gaps -->
  <rect x="0" y="370" width="1440" height="142" fill="white"/>

</svg>
